# xmcd CD database file
#
# Track frame offsets:
#	182
#	25210
#	49027
#	69142
#	93110
#	115160
#	141970
#	163257
#	187042
#
# Disc length: 2759 seconds
#
# Revision: 10
# Processed by: cddbd v1.5.1PL2 Copyright (c) Steve Scherf et al.
# Submitted via: CDex 1.51
#
DISCID=740ac509
DTITLE=Bobby McFerrin - Bang! Zoom
DYEAR=1996
DGENRE=Jazz
TTITLE0=Bang!Zoom
TTITLE1=Remembrance
TTITLE2=Friends
TTITLE3=Selim
TTITLE4=Freedom is a Voice
TTITLE5=Heaven's Design
TTITLE6=My Better Half
TTITLE7=Kids' Toys
TTITLE8=Mere Words
EXTD=Blue Note Contemporary\n(C) 1995 Capitol Records YEAR: 1996
EXTT0=
EXTT1=
EXTT2=
EXTT3=
EXTT4=
EXTT5=
EXTT6=
EXTT7=
EXTT8=
PLAYORDER=
